<svg width="55" height="32" viewBox="0 0 55 32" fill="none" xmlns="http://www.w3.org/2000/svg">
<path d="M0 1C0 0.447716 0.447715 0 1 0H54C54.5523 0 55 0.447715 55 1V25C55 25.5523 54.5523 26 54 26H12.9142C12.649 26 12.3946 26.1054 12.2071 26.2929L7 31.5L7.40086 27.0905C7.4541 26.5049 6.993 26 6.40497 26H1C0.447715 26 0 25.5523 0 25V1Z" fill="#E73966"/>
<path d="M11.24 17.46C9.92 17.46 8.70667 17.1533 7.6 16.54C6.49333 15.9133 5.61333 15.0533 4.96 13.96C4.32 12.8533 4 11.6067 4 10.22C4 8.83333 4.32 7.59333 4.96 6.5C5.61333 5.39333 6.49333 4.53333 7.6 3.92C8.70667 3.30667 9.92 3 11.24 3C12.5733 3 13.7867 3.30667 14.88 3.92C15.9867 4.53333 16.86 5.39333 17.5 6.5C18.14 7.59333 18.46 8.83333 18.46 10.22C18.46 11.6067 18.14 12.8533 17.5 13.96C16.86 15.0533 15.9867 15.9133 14.88 16.54C13.7733 17.1533 12.56 17.46 11.24 17.46ZM11.24 13.82C12.24 13.82 13.0267 13.4933 13.6 12.84C14.1867 12.1867 14.48 11.3133 14.48 10.22C14.48 9.1 14.1867 8.22 13.6 7.58C13.0267 6.92667 12.24 6.6 11.24 6.6C10.2267 6.6 9.43333 6.92667 8.86 7.58C8.28667 8.22 8 9.1 8 10.22C8 11.3267 8.28667 12.2067 8.86 12.86C9.43333 13.5 10.2267 13.82 11.24 13.82Z" fill="white"/>
<path d="M29.7822 3.22V6.34H24.1422V8.82L29.8604 8.82007V11.8201L24.1422 11.8V17.32H20.2222V3.22H29.7822Z" fill="white"/>
<path d="M51.2931 3.22L47.8331 17.32H43.0131L41.0731 8.68L39.0931 17.32H34.2731L30.8531 3.22H35.0931L36.7331 12.86L38.9531 3.22H43.2531L45.4131 12.78L47.0531 3.22H51.2931Z" fill="white"/>
<path d="M7.57022 22.488C7.30622 22.488 7.06355 22.4267 6.84222 22.304C6.62355 22.1813 6.44889 22.0107 6.31822 21.792C6.19022 21.5707 6.12622 21.3227 6.12622 21.048C6.12622 20.7733 6.19022 20.5267 6.31822 20.308C6.44889 20.0893 6.62355 19.9187 6.84222 19.796C7.06355 19.6733 7.30622 19.612 7.57022 19.612C7.83422 19.612 8.07555 19.6733 8.29422 19.796C8.51555 19.9187 8.68889 20.0893 8.81422 20.308C8.94222 20.5267 9.00622 20.7733 9.00622 21.048C9.00622 21.3227 8.94222 21.5707 8.81422 21.792C8.68622 22.0107 8.51289 22.1813 8.29422 22.304C8.07555 22.4267 7.83422 22.488 7.57022 22.488ZM7.57022 21.864C7.79422 21.864 7.97289 21.7893 8.10622 21.64C8.24222 21.4907 8.31022 21.2933 8.31022 21.048C8.31022 20.8 8.24222 20.6027 8.10622 20.456C7.97289 20.3067 7.79422 20.232 7.57022 20.232C7.34355 20.232 7.16222 20.3053 7.02622 20.452C6.89289 20.5987 6.82622 20.7973 6.82622 21.048C6.82622 21.296 6.89289 21.4947 7.02622 21.644C7.16222 21.7907 7.34355 21.864 7.57022 21.864Z" fill="white"/>
<path d="M12.8988 22.46H12.2148L11.0708 20.728V22.46H10.3868V19.652H11.0708L12.2148 21.392V19.652H12.8988V22.46Z" fill="white"/>
<path d="M15.0786 20.2V20.768H15.9946V21.296H15.0786V21.912H16.1146V22.46H14.3946V19.652H16.1146V20.2H15.0786Z" fill="white"/>
<path d="M21.2343 19.652V20.2H20.0903V20.792H20.9463V21.324H20.0903V22.46H19.4063V19.652H21.2343Z" fill="white"/>
<path d="M24.3418 21.964H23.2938L23.1258 22.46H22.4098L23.4258 19.652H24.2178L25.2338 22.46H24.5098L24.3418 21.964ZM24.1658 21.436L23.8178 20.408L23.4738 21.436H24.1658Z" fill="white"/>
<path d="M27.227 19.652V22.46H26.543V19.652H27.227Z" fill="white"/>
<path d="M30.1547 22.46L29.5707 21.4H29.4067V22.46H28.7227V19.652H29.8707C30.092 19.652 30.28 19.6907 30.4347 19.768C30.592 19.8453 30.7094 19.952 30.7867 20.088C30.864 20.2213 30.9027 20.3707 30.9027 20.536C30.9027 20.7227 30.8494 20.8893 30.7427 21.036C30.6387 21.1827 30.484 21.2867 30.2787 21.348L30.9267 22.46H30.1547ZM29.4067 20.916H29.8307C29.956 20.916 30.0494 20.8853 30.1107 20.824C30.1747 20.7627 30.2067 20.676 30.2067 20.564C30.2067 20.4573 30.1747 20.3733 30.1107 20.312C30.0494 20.2507 29.956 20.22 29.8307 20.22H29.4067V20.916Z" fill="white"/>
<path d="M38.0437 19.652L37.3117 22.46H36.4837L36.0357 20.612L35.5717 22.46H34.7437L34.0317 19.652H34.7637L35.1677 21.696L35.6677 19.652H36.4197L36.8997 21.696L37.3077 19.652H38.0437Z" fill="white"/>
<path d="M41.1347 21.964H40.0868L39.9187 22.46H39.2027L40.2188 19.652H41.0107L42.0267 22.46H41.3027L41.1347 21.964ZM40.9587 21.436L40.6107 20.408L40.2667 21.436H40.9587Z" fill="white"/>
<path d="M45.2 20.54C45.1493 20.4467 45.076 20.376 44.98 20.328C44.8866 20.2773 44.776 20.252 44.648 20.252C44.4266 20.252 44.2493 20.3253 44.116 20.472C43.9826 20.616 43.916 20.8093 43.916 21.052C43.916 21.3107 43.9853 21.5133 44.124 21.66C44.2653 21.804 44.4586 21.876 44.704 21.876C44.872 21.876 45.0133 21.8333 45.128 21.748C45.2453 21.6627 45.3306 21.54 45.384 21.38H44.516V20.876H46.004V21.512C45.9533 21.6827 45.8666 21.8413 45.744 21.988C45.624 22.1347 45.4706 22.2533 45.284 22.344C45.0973 22.4347 44.8866 22.48 44.652 22.48C44.3746 22.48 44.1266 22.42 43.908 22.3C43.692 22.1773 43.5226 22.008 43.4 21.792C43.28 21.576 43.22 21.3293 43.22 21.052C43.22 20.7747 43.28 20.528 43.4 20.312C43.5226 20.0933 43.692 19.924 43.908 19.804C44.124 19.6813 44.3706 19.62 44.648 19.62C44.984 19.62 45.2666 19.7013 45.496 19.864C45.728 20.0267 45.8813 20.252 45.956 20.54H45.2Z" fill="white"/>
<path d="M48.0668 20.2V20.768H48.9828V21.296H48.0668V21.912H49.1028V22.46H47.3828V19.652H49.1028V20.2H48.0668Z" fill="white"/>
</svg>
